<?xml version="1.0" standalone="no"?>
<!DOCTYPE svg PUBLIC "-//W3C//DTD SVG 20010904//EN"
 "http://www.w3.org/TR/2001/REC-SVG-20010904/DTD/svg10.dtd">
<svg version="1.0" xmlns="http://www.w3.org/2000/svg"
 width="252.000000pt" height="199.000000pt" viewBox="0 0 252.000000 199.000000"
 preserveAspectRatio="xMidYMid meet">

<g transform="translate(0.000000,199.000000) scale(0.100000,-0.100000)"
fill="#000000" stroke="none">
<path d="M1225 1774 c-282 -42 -500 -176 -642 -396 -104 -160 -147 -309 -146
-503 0 -111 4 -143 27 -218 77 -255 236 -430 460 -504 71 -23 98 -26 216 -27
159 -1 227 16 375 92 107 56 234 174 285 265 30 54 35 58 59 51 14 -4 42 -8
61 -8 29 -1 36 3 38 23 2 14 -8 40 -26 65 l-31 42 24 40 c42 71 58 146 53 258
-6 151 -56 241 -165 296 -42 22 -61 25 -148 25 -85 0 -107 -4 -149 -24 -105
-52 -173 -161 -183 -295 -11 -145 29 -260 117 -339 59 -53 125 -78 205 -78
l56 0 -20 -32 c-55 -87 -184 -189 -294 -234 -244 -99 -491 -57 -663 112 -196
193 -255 498 -150 777 93 247 265 407 523 484 120 36 296 39 425 6 93 -23 205
-74 255 -116 36 -31 64 -33 86 -8 27 30 20 49 -34 92 -67 53 -177 105 -275
131 -77 19 -272 33 -339 23z m542 -630 c38 -28 71 -78 84 -128 15 -54 6 -171
-15 -221 l-18 -40 -21 29 c-56 75 -61 79 -120 84 -51 4 -57 2 -57 -14 0 -21
33 -74 88 -142 19 -23 32 -45 28 -49 -3 -4 -34 -7 -69 -7 -89 1 -139 31 -183
114 -15 28 -19 57 -19 146 0 106 1 113 30 160 44 71 92 96 177 92 49 -3 75 -9
95 -24z"/>
<path d="M2327 1613 c-4 -4 -96 -37 -205 -73 -188 -64 -197 -68 -200 -94 -4
-34 13 -56 44 -56 13 0 67 14 120 31 53 17 97 29 99 27 1 -2 -33 -62 -77 -135
l-80 -131 27 -69 c40 -97 47 -278 16 -405 -21 -88 -70 -198 -122 -274 -48 -70
-149 -165 -236 -221 -73 -47 -83 -57 -83 -83 0 -39 29 -55 74 -40 83 27 249
170 332 287 141 196 193 473 134 721 l-22 92 53 95 c30 51 55 92 57 90 2 -2
-6 -52 -18 -110 l-22 -108 21 -20 c17 -17 26 -19 48 -11 27 9 29 14 71 227 40
204 42 220 27 243 -15 23 -44 32 -58 17z"/>
<path d="M784 1271 c-2 -2 -4 -163 -4 -358 l0 -353 60 0 60 0 0 130 0 130 59
0 59 0 76 -130 77 -130 70 0 70 0 -28 47 c-15 27 -51 88 -81 137 -29 48 -52
89 -50 90 2 2 20 13 41 25 104 63 128 242 45 337 -56 64 -74 68 -271 74 -98 3
-181 3 -183 1z m310 -115 c46 -19 66 -52 66 -106 0 -96 -47 -130 -177 -130
l-83 0 0 118 c0 65 3 122 7 125 12 13 153 7 187 -7z"/>
</g>
</svg>
